<svg width="419" height="62" viewBox="0 0 419 62" fill="none" xmlns="http://www.w3.org/2000/svg">
<path d="M40.0909 16H34.4545C34.1212 14.3788 33.5379 12.9545 32.7045 11.7273C31.8864 10.5 30.8864 9.4697 29.7045 8.63636C28.5379 7.78788 27.2424 7.15151 25.8182 6.72727C24.3939 6.30303 22.9091 6.09091 21.3636 6.09091C18.5455 6.09091 15.9924 6.80303 13.7045 8.22727C11.4318 9.65151 9.62121 11.75 8.27273 14.5227C6.93939 17.2955 6.27273 20.697 6.27273 24.7273C6.27273 28.7576 6.93939 32.1591 8.27273 34.9318C9.62121 37.7045 11.4318 39.803 13.7045 41.2273C15.9924 42.6515 18.5455 43.3636 21.3636 43.3636C22.9091 43.3636 24.3939 43.1515 25.8182 42.7273C27.2424 42.303 28.5379 41.6742 29.7045 40.8409C30.8864 39.9924 31.8864 38.9545 32.7045 37.7273C33.5379 36.4848 34.1212 35.0606 34.4545 33.4545H40.0909C39.6667 35.8333 38.8939 37.9621 37.7727 39.8409C36.6515 41.7197 35.2576 43.3182 33.5909 44.6364C31.9242 45.9394 30.053 46.9318 27.9773 47.6136C25.9167 48.2955 23.7121 48.6364 21.3636 48.6364C17.3939 48.6364 13.8636 47.6667 10.7727 45.7273C7.68182 43.7879 5.25 41.0303 3.47727 37.4545C1.70455 33.8788 0.818182 29.6364 0.818182 24.7273C0.818182 19.8182 1.70455 15.5758 3.47727 12C5.25 8.42424 7.68182 5.66667 10.7727 3.72727C13.8636 1.78788 17.3939 0.81818 21.3636 0.81818C23.7121 0.81818 25.9167 1.15909 27.9773 1.84091C30.053 2.52273 31.9242 3.52273 33.5909 4.84091C35.2576 6.14394 36.6515 7.73485 37.7727 9.61364C38.8939 11.4773 39.6667 13.6061 40.0909 16ZM53.8352 1.45454V48H48.4716V1.45454H53.8352ZM85.6591 33.7273V13.0909H91.0227V48H85.6591V42.0909H85.2955C84.4773 43.8636 83.2045 45.3712 81.4773 46.6136C79.75 47.8409 77.5682 48.4545 74.9318 48.4545C72.75 48.4545 70.8106 47.9773 69.1136 47.0227C67.4167 46.053 66.0833 44.5985 65.1136 42.6591C64.1439 40.7045 63.6591 38.2424 63.6591 35.2727V13.0909H69.0227V34.9091C69.0227 37.4545 69.7348 39.4848 71.1591 41C72.5985 42.5152 74.4318 43.2727 76.6591 43.2727C77.9924 43.2727 79.3485 42.9318 80.7273 42.25C82.1212 41.5682 83.2879 40.5227 84.2273 39.1136C85.1818 37.7045 85.6591 35.9091 85.6591 33.7273ZM101.574 48V1.45454H106.938V18.6364H107.392C107.786 18.0303 108.331 17.2576 109.028 16.3182C109.741 15.3636 110.756 14.5152 112.074 13.7727C113.407 13.0152 115.21 12.6364 117.483 12.6364C120.422 12.6364 123.013 13.3712 125.256 14.8409C127.498 16.3106 129.248 18.3939 130.506 21.0909C131.763 23.7879 132.392 26.9697 132.392 30.6364C132.392 34.3333 131.763 37.5379 130.506 40.25C129.248 42.947 127.506 45.0379 125.278 46.5227C123.051 47.9924 120.483 48.7273 117.574 48.7273C115.331 48.7273 113.536 48.3561 112.188 47.6136C110.839 46.8561 109.801 46 109.074 45.0455C108.347 44.0758 107.786 43.2727 107.392 42.6364H106.756V48H101.574ZM106.847 30.5455C106.847 33.1818 107.233 35.5076 108.006 37.5227C108.778 39.5227 109.907 41.0909 111.392 42.2273C112.877 43.3485 114.695 43.9091 116.847 43.9091C119.089 43.9091 120.96 43.3182 122.46 42.1364C123.975 40.9394 125.112 39.3333 125.869 37.3182C126.642 35.2879 127.028 33.0303 127.028 30.5455C127.028 28.0909 126.65 25.8788 125.892 23.9091C125.15 21.9242 124.021 20.3561 122.506 19.2045C121.006 18.0379 119.119 17.4545 116.847 17.4545C114.665 17.4545 112.831 18.0076 111.347 19.1136C109.862 20.2045 108.741 21.7348 107.983 23.7045C107.225 25.6591 106.847 27.9394 106.847 30.5455ZM159.324 1.45454H166.051L181.869 40.0909H182.415L198.233 1.45454H204.96V48H199.688V12.6364H199.233L184.688 48H179.597L165.051 12.6364H164.597V48H159.324V1.45454ZM225.807 48.8182C223.595 48.8182 221.587 48.4015 219.784 47.5682C217.981 46.7197 216.549 45.5 215.489 43.9091C214.428 42.303 213.898 40.3636 213.898 38.0909C213.898 36.0909 214.292 34.4697 215.08 33.2273C215.867 31.9697 216.92 30.9848 218.239 30.2727C219.557 29.5606 221.011 29.0303 222.602 28.6818C224.208 28.3182 225.822 28.0303 227.443 27.8182C229.564 27.5455 231.284 27.3409 232.602 27.2045C233.936 27.053 234.905 26.803 235.511 26.4545C236.133 26.1061 236.443 25.5 236.443 24.6364V24.4545C236.443 22.2121 235.83 20.4697 234.602 19.2273C233.39 17.9848 231.549 17.3636 229.08 17.3636C226.519 17.3636 224.511 17.9242 223.057 19.0455C221.602 20.1667 220.58 21.3636 219.989 22.6364L214.898 20.8182C215.807 18.697 217.019 17.0455 218.534 15.8636C220.064 14.6667 221.731 13.8333 223.534 13.3636C225.352 12.8788 227.14 12.6364 228.898 12.6364C230.019 12.6364 231.307 12.7727 232.761 13.0455C234.231 13.303 235.648 13.8409 237.011 14.6591C238.39 15.4773 239.534 16.7121 240.443 18.3636C241.352 20.0152 241.807 22.2273 241.807 25V48H236.443V43.2727H236.17C235.807 44.0303 235.201 44.8409 234.352 45.7045C233.504 46.5682 232.375 47.303 230.966 47.9091C229.557 48.5152 227.837 48.8182 225.807 48.8182ZM226.625 44C228.746 44 230.534 43.5833 231.989 42.75C233.458 41.9167 234.564 40.8409 235.307 39.5227C236.064 38.2045 236.443 36.8182 236.443 35.3636V30.4545C236.216 30.7273 235.716 30.9773 234.943 31.2045C234.186 31.4167 233.307 31.6061 232.307 31.7727C231.322 31.9242 230.36 32.0606 229.42 32.1818C228.496 32.2879 227.746 32.3788 227.17 32.4545C225.777 32.6364 224.473 32.9318 223.261 33.3409C222.064 33.7348 221.095 34.3333 220.352 35.1364C219.625 35.9242 219.261 37 219.261 38.3636C219.261 40.2273 219.951 41.6364 221.33 42.5909C222.723 43.5303 224.489 44 226.625 44ZM256.96 27V48H251.597V13.0909H256.778V18.5455H257.233C258.051 16.7727 259.294 15.3485 260.96 14.2727C262.627 13.1818 264.778 12.6364 267.415 12.6364C269.778 12.6364 271.847 13.1212 273.619 14.0909C275.392 15.0455 276.771 16.5 277.756 18.4545C278.741 20.3939 279.233 22.8485 279.233 25.8182V48H273.869V26.1818C273.869 23.4394 273.157 21.303 271.733 19.7727C270.309 18.2273 268.354 17.4545 265.869 17.4545C264.157 17.4545 262.627 17.8258 261.278 18.5682C259.945 19.3106 258.892 20.3939 258.119 21.8182C257.347 23.2424 256.96 24.9697 256.96 27ZM299.307 48.8182C297.095 48.8182 295.087 48.4015 293.284 47.5682C291.481 46.7197 290.049 45.5 288.989 43.9091C287.928 42.303 287.398 40.3636 287.398 38.0909C287.398 36.0909 287.792 34.4697 288.58 33.2273C289.367 31.9697 290.42 30.9848 291.739 30.2727C293.057 29.5606 294.511 29.0303 296.102 28.6818C297.708 28.3182 299.322 28.0303 300.943 27.8182C303.064 27.5455 304.784 27.3409 306.102 27.2045C307.436 27.053 308.405 26.803 309.011 26.4545C309.633 26.1061 309.943 25.5 309.943 24.6364V24.4545C309.943 22.2121 309.33 20.4697 308.102 19.2273C306.89 17.9848 305.049 17.3636 302.58 17.3636C300.019 17.3636 298.011 17.9242 296.557 19.0455C295.102 20.1667 294.08 21.3636 293.489 22.6364L288.398 20.8182C289.307 18.697 290.519 17.0455 292.034 15.8636C293.564 14.6667 295.231 13.8333 297.034 13.3636C298.852 12.8788 300.64 12.6364 302.398 12.6364C303.519 12.6364 304.807 12.7727 306.261 13.0455C307.731 13.303 309.148 13.8409 310.511 14.6591C311.89 15.4773 313.034 16.7121 313.943 18.3636C314.852 20.0152 315.307 22.2273 315.307 25V48H309.943V43.2727H309.67C309.307 44.0303 308.701 44.8409 307.852 45.7045C307.004 46.5682 305.875 47.303 304.466 47.9091C303.057 48.5152 301.337 48.8182 299.307 48.8182ZM300.125 44C302.246 44 304.034 43.5833 305.489 42.75C306.958 41.9167 308.064 40.8409 308.807 39.5227C309.564 38.2045 309.943 36.8182 309.943 35.3636V30.4545C309.716 30.7273 309.216 30.9773 308.443 31.2045C307.686 31.4167 306.807 31.6061 305.807 31.7727C304.822 31.9242 303.86 32.0606 302.92 32.1818C301.996 32.2879 301.246 32.3788 300.67 32.4545C299.277 32.6364 297.973 32.9318 296.761 33.3409C295.564 33.7348 294.595 34.3333 293.852 35.1364C293.125 35.9242 292.761 37 292.761 38.3636C292.761 40.2273 293.451 41.6364 294.83 42.5909C296.223 43.5303 297.989 44 300.125 44ZM339.188 61.8182C336.597 61.8182 334.369 61.4848 332.506 60.8182C330.642 60.1667 329.089 59.303 327.847 58.2273C326.619 57.1667 325.642 56.0303 324.915 54.8182L329.188 51.8182C329.672 52.4545 330.286 53.1818 331.028 54C331.771 54.8333 332.786 55.553 334.074 56.1591C335.377 56.7803 337.081 57.0909 339.188 57.0909C342.006 57.0909 344.331 56.4091 346.165 55.0455C347.998 53.6818 348.915 51.5455 348.915 48.6364V41.5455H348.46C348.066 42.1818 347.506 42.9697 346.778 43.9091C346.066 44.8333 345.036 45.6591 343.688 46.3864C342.354 47.0985 340.551 47.4545 338.278 47.4545C335.46 47.4545 332.93 46.7879 330.688 45.4545C328.46 44.1212 326.695 42.1818 325.392 39.6364C324.104 37.0909 323.46 34 323.46 30.3636C323.46 26.7879 324.089 23.6742 325.347 21.0227C326.604 18.3561 328.354 16.2955 330.597 14.8409C332.839 13.3712 335.43 12.6364 338.369 12.6364C340.642 12.6364 342.445 13.0152 343.778 13.7727C345.127 14.5152 346.157 15.3636 346.869 16.3182C347.597 17.2576 348.157 18.0303 348.551 18.6364H349.097V13.0909H354.278V49C354.278 52 353.597 54.4394 352.233 56.3182C350.884 58.2121 349.066 59.5985 346.778 60.4773C344.506 61.3712 341.975 61.8182 339.188 61.8182ZM339.006 42.6364C341.157 42.6364 342.975 42.1439 344.46 41.1591C345.945 40.1742 347.074 38.7576 347.847 36.9091C348.619 35.0606 349.006 32.8485 349.006 30.2727C349.006 27.7576 348.627 25.5379 347.869 23.6136C347.112 21.6894 345.991 20.1818 344.506 19.0909C343.021 18 341.188 17.4545 339.006 17.4545C336.733 17.4545 334.839 18.0303 333.324 19.1818C331.824 20.3333 330.695 21.8788 329.938 23.8182C329.195 25.7576 328.824 27.9091 328.824 30.2727C328.824 32.697 329.203 34.8409 329.96 36.7045C330.733 38.553 331.869 40.0076 333.369 41.0682C334.884 42.1136 336.763 42.6364 339.006 42.6364ZM378.733 48.7273C375.369 48.7273 372.468 47.9848 370.028 46.5C367.604 45 365.733 42.9091 364.415 40.2273C363.112 37.5303 362.46 34.3939 362.46 30.8182C362.46 27.2424 363.112 24.0909 364.415 21.3636C365.733 18.6212 367.566 16.4848 369.915 14.9545C372.278 13.4091 375.036 12.6364 378.188 12.6364C380.006 12.6364 381.801 12.9394 383.574 13.5455C385.347 14.1515 386.96 15.1364 388.415 16.5C389.869 17.8485 391.028 19.6364 391.892 21.8636C392.756 24.0909 393.188 26.8333 393.188 30.0909V32.3636H366.278V27.7273H387.733C387.733 25.7576 387.339 24 386.551 22.4545C385.778 20.9091 384.672 19.6894 383.233 18.7955C381.809 17.9015 380.127 17.4545 378.188 17.4545C376.051 17.4545 374.203 17.9848 372.642 19.0455C371.097 20.0909 369.907 21.4545 369.074 23.1364C368.241 24.8182 367.824 26.6212 367.824 28.5455V31.6364C367.824 34.2727 368.278 36.5076 369.188 38.3409C370.112 40.1591 371.392 41.5455 373.028 42.5C374.665 43.4394 376.566 43.9091 378.733 43.9091C380.142 43.9091 381.415 43.7121 382.551 43.3182C383.703 42.9091 384.695 42.303 385.528 41.5C386.362 40.6818 387.006 39.6667 387.46 38.4545L392.642 39.9091C392.097 41.6667 391.18 43.2121 389.892 44.5455C388.604 45.8636 387.013 46.8939 385.119 47.6364C383.225 48.3636 381.097 48.7273 378.733 48.7273ZM401.347 48V13.0909H406.528V18.3636H406.892C407.528 16.6364 408.68 15.2348 410.347 14.1591C412.013 13.0833 413.892 12.5455 415.983 12.5455C416.377 12.5455 416.869 12.553 417.46 12.5682C418.051 12.5833 418.498 12.6061 418.801 12.6364V18.0909C418.619 18.0455 418.203 17.9773 417.551 17.8864C416.915 17.7803 416.241 17.7273 415.528 17.7273C413.831 17.7273 412.316 18.0833 410.983 18.7955C409.665 19.4924 408.619 20.4621 407.847 21.7045C407.089 22.9318 406.71 24.3333 406.71 25.9091V48H401.347Z" fill="#EDB320"/>
</svg>
